<svg width="198" height="21" viewBox="0 0 198 21" fill="none" xmlns="http://www.w3.org/2000/svg">
<path d="M4.67788 2.49416V17.2739H12.9792C13.6409 17.2739 14.1489 17.4354 14.5026 17.7584C14.8563 18.0814 15.0338 18.4877 15.0338 18.9774C15.0338 19.467 14.8589 19.8798 14.5097 20.1892C14.1605 20.4987 13.6499 20.6531 12.9792 20.6531H3.09273C2.2008 20.6531 1.55967 20.4548 1.16933 20.0575C0.778345 19.6602 0.583496 19.0187 0.583496 18.1318V2.49287C0.583496 1.66147 0.769341 1.03873 1.14167 0.622713C1.51401 0.207339 2.00338 -0.000671387 2.61043 -0.000671387C3.21748 -0.000671387 3.72486 0.204754 4.10684 0.615606C4.48818 1.02646 4.67917 1.65243 4.67917 2.49222L4.67788 2.49416Z" fill="white"/>
<path d="M17.8877 18.4929V2.49415C17.8877 1.66276 18.0761 1.04002 18.4529 0.623995C18.8298 0.20862 19.3172 0.000610352 19.9146 0.000610352C20.512 0.000610352 21.0291 0.206037 21.411 0.61689C21.7924 1.02774 21.9834 1.65371 21.9834 2.4935V18.4922C21.9834 19.3327 21.7924 19.9606 21.411 20.3759C21.0297 20.7913 20.5307 20.9993 19.9146 20.9993C19.2986 20.9993 18.8414 20.7894 18.46 20.3688C18.0787 19.9489 17.8877 19.323 17.8877 18.4922V18.4929Z" fill="white"/>
<path d="M31.8974 2.46641L39.7711 14.4348V2.35594C39.7711 1.57106 39.939 0.982558 40.2746 0.589794C40.6103 0.197029 41.063 0.00129325 41.6328 0.00129325C42.2025 0.00129325 42.6855 0.197675 43.0257 0.589794C43.3658 0.982558 43.5356 1.57106 43.5356 2.35594V18.3275C43.5356 20.1098 42.7999 21.0006 41.3293 21.0006C40.9614 21.0006 40.6309 20.9477 40.3364 20.8411C40.0425 20.7351 39.7666 20.5665 39.5087 20.3353C39.2515 20.1047 39.0123 19.834 38.7917 19.5252C38.5712 19.2158 38.3506 18.8999 38.13 18.5762L30.4493 6.74677V18.6454C30.4493 19.4212 30.2699 20.0078 29.9117 20.4044C29.5528 20.8017 29.0937 21 28.5329 21C27.9722 21 27.4892 20.7991 27.1401 20.3973C26.7909 19.9955 26.616 19.4115 26.616 18.6447V2.97804C26.616 2.31331 26.6893 1.79135 26.8365 1.41279C27.0115 0.997418 27.3008 0.657624 27.7053 0.394704C28.1098 0.131784 28.5464 0 29.0152 0C29.3831 0 29.6975 0.0600781 29.9599 0.180233C30.2216 0.300388 30.4518 0.461887 30.6493 0.664729C30.8467 0.867572 31.0492 1.13114 31.2557 1.45414C31.4627 1.77713 31.6762 2.11434 31.8968 2.46512V2.46641H31.8974Z" fill="white"/>
<path d="M66.4801 12.3979V16.29C66.4801 16.8075 66.4293 17.2203 66.3283 17.5297C66.2273 17.8391 66.0409 18.1182 65.7701 18.3675C65.4988 18.6169 65.1521 18.8572 64.729 19.0878C63.5065 19.7526 62.3297 20.2377 61.1992 20.542C60.0687 20.8469 58.8366 20.9993 57.5035 20.9993C55.9499 20.9993 54.5345 20.759 53.2568 20.279C51.979 19.7991 50.8896 19.1014 49.9887 18.1873C49.0878 17.2732 48.3958 16.1647 47.9135 14.863C47.4312 13.5607 47.1895 12.1066 47.1895 10.5C47.1895 8.89338 47.4242 7.47543 47.893 6.16406C48.3618 4.85269 49.0511 3.74028 49.9611 2.82556C50.871 1.91147 51.979 1.21186 53.2844 0.726717C54.5898 0.242221 56.0695 -0.000671387 57.7248 -0.000671387C59.0855 -0.000671387 60.2893 0.181499 61.3375 0.546486C62.3857 0.911473 63.2358 1.37078 63.8885 1.92504C64.5412 2.4793 65.0332 3.06522 65.3637 3.68408C65.6949 4.30294 65.8602 4.85204 65.8602 5.33266C65.8602 5.8501 65.6692 6.29067 65.2878 6.65566C64.9065 7.02065 64.4493 7.20282 63.9155 7.20282C63.6216 7.20282 63.3387 7.13369 63.0673 6.99481C62.796 6.85656 62.5683 6.66212 62.385 6.41277C61.8796 5.61884 61.452 5.01806 61.1028 4.61173C60.7536 4.2054 60.2822 3.86367 59.6893 3.58654C59.0964 3.30941 58.3402 3.17116 57.4212 3.17116C56.5023 3.17116 55.6284 3.33525 54.8843 3.66276C54.1397 3.99028 53.5031 4.46638 52.9745 5.08977C52.4459 5.71315 52.0414 6.47736 51.761 7.3824C51.4806 8.28744 51.3404 9.28938 51.3404 10.3882C51.3404 12.7706 51.8851 14.604 52.9745 15.8876C54.0638 17.1712 55.5827 17.8133 57.5318 17.8133C58.4784 17.8133 59.3678 17.6886 60.1999 17.4392C61.032 17.1899 61.8751 16.8346 62.7304 16.3727V13.0762H59.5588C58.7961 13.0762 58.2186 12.9606 57.8283 12.7299C57.4373 12.4993 57.2425 12.1066 57.2425 11.5523C57.2425 11.1001 57.4058 10.7261 57.7318 10.4302C58.0579 10.135 58.5016 9.98705 59.0623 9.98705H63.7091C64.2789 9.98705 64.7618 10.0381 65.1566 10.1395C65.5521 10.2409 65.8711 10.467 66.1148 10.8184C66.3585 11.1692 66.4801 11.6957 66.4801 12.3973V12.3979Z" fill="white"/>
<path d="M94.6649 14.2403C94.6649 14.8869 94.5061 15.5865 94.189 16.3391C93.872 17.0917 93.373 17.8307 92.6926 18.5555C92.0123 19.2803 91.1435 19.8688 90.0863 20.3217C89.0291 20.7739 87.7976 21.0006 86.3906 21.0006C85.3244 21.0006 84.3547 20.8992 83.4814 20.6957C82.6081 20.4922 81.8152 20.1763 81.1027 19.7467C80.3902 19.3171 79.7355 18.7519 79.1375 18.0497C78.6044 17.4128 78.1491 16.6989 77.7723 15.9095C77.3954 15.1201 77.1125 14.2771 76.9241 13.3817C76.7356 12.4858 76.6411 11.5348 76.6411 10.5284C76.6411 8.89402 76.8778 7.4302 77.3511 6.13756C77.8244 4.84493 78.5021 3.73898 79.3851 2.81973C80.2673 1.90113 81.302 1.20151 82.4878 0.720894C83.6737 0.24092 84.9379 0.000610352 86.28 0.000610352C87.9166 0.000610352 89.3731 0.32813 90.6509 0.983815C91.9287 1.6395 92.9074 2.44958 93.5878 3.41469C94.2681 4.37981 94.6083 5.29131 94.6083 6.15048C94.6083 6.62141 94.443 7.03679 94.1119 7.39725C93.7807 7.75772 93.3813 7.9373 92.9119 7.9373C92.3878 7.9373 91.9949 7.81263 91.7332 7.56327C91.4714 7.31392 91.1795 6.88433 90.8573 6.27516C90.3242 5.2687 89.6966 4.51611 88.9751 4.01741C88.2536 3.5187 87.3642 3.26934 86.307 3.26934C84.6247 3.26934 83.2846 3.91146 82.2872 5.19506C81.2898 6.47865 80.7908 8.30229 80.7908 10.6666C80.7908 12.2454 81.0114 13.5594 81.4525 14.6072C81.8937 15.6557 82.5187 16.4379 83.3277 16.9554C84.1367 17.4728 85.0832 17.7312 86.1681 17.7312C87.3449 17.7312 88.3397 17.438 89.1532 16.8514C89.9667 16.2648 90.5802 15.4037 90.9943 14.2681C91.1692 13.7325 91.3853 13.2958 91.6425 12.9593C91.8997 12.6221 92.3139 12.4535 92.8836 12.4535C93.3711 12.4535 93.789 12.624 94.1382 12.9657C94.4874 13.3075 94.6623 13.7319 94.6623 14.2403H94.6649Z" fill="white"/>
<path d="M102.47 2.49419V8.31202H111.309V2.49419C111.309 1.66279 111.494 1.04005 111.867 0.624031C112.239 0.208657 112.728 0.000646626 113.336 0.000646626C113.943 0.000646626 114.45 0.206074 114.832 0.616926C115.213 1.02778 115.404 1.65375 115.404 2.49354V18.4923C115.404 19.3327 115.211 19.9606 114.825 20.376C114.439 20.7913 113.943 20.9994 113.336 20.9994C112.728 20.9994 112.228 20.7894 111.86 20.3689C111.493 19.949 111.309 19.323 111.309 18.4923V11.6634H102.47V18.4923C102.47 19.3327 102.277 19.9606 101.89 20.376C101.504 20.7913 101.008 20.9994 100.401 20.9994C99.7939 20.9994 99.293 20.7894 98.9258 20.3689C98.5579 19.949 98.374 19.323 98.374 18.4923V2.49354C98.374 1.66215 98.5554 1.03941 98.9187 0.623387C99.282 0.208012 99.7759 0 100.401 0C101.026 0 101.515 0.205427 101.897 0.61628C102.279 1.02713 102.47 1.6531 102.47 2.4929V2.49419Z" fill="white"/>
<path d="M132.737 18.3546L131.772 15.8062H123.553L122.588 18.4102C122.211 19.4257 121.89 20.1117 121.623 20.467C121.356 20.8223 120.919 21.0006 120.313 21.0006C119.798 21.0006 119.343 20.8114 118.948 20.4328C118.552 20.0543 118.355 19.6247 118.355 19.1447C118.355 18.8676 118.4 18.5814 118.492 18.2862C118.584 17.9909 118.736 17.5794 118.948 17.0536L124.119 3.86627C124.266 3.48772 124.443 3.03293 124.65 2.50193C124.857 1.97092 125.077 1.5297 125.311 1.17893C125.546 0.828154 125.853 0.543918 126.235 0.326864C126.617 0.109809 127.088 0.00128174 127.649 0.00128174C128.21 0.00128174 128.695 0.109809 129.076 0.326864C129.457 0.543918 129.765 0.822986 130 1.16472C130.235 1.50645 130.432 1.87337 130.593 2.26614C130.754 2.6589 130.958 3.18281 131.206 3.83849L136.488 16.9425C136.901 17.9399 137.108 18.6647 137.108 19.1176C137.108 19.5704 136.913 20.02 136.523 20.4128C136.132 20.8055 135.661 21.0013 135.109 21.0013C134.788 21.0013 134.512 20.9438 134.281 20.8282C134.052 20.7125 133.858 20.5555 133.702 20.3572C133.546 20.1589 133.378 19.854 133.199 19.4431C133.019 19.0323 132.865 18.6699 132.737 18.3559V18.3546ZM124.629 12.717H130.669L127.621 4.33655L124.629 12.717Z" fill="white"/>
<path d="M145.615 11.9683H144.181V18.4929C144.181 19.3514 143.993 19.9845 143.616 20.3908C143.239 20.7971 142.747 21 142.141 21C141.488 21 140.983 20.7874 140.624 20.363C140.265 19.9379 140.086 19.3146 140.086 18.4929V2.86818C140.086 1.98188 140.284 1.33976 140.679 0.94247C141.075 0.545183 141.713 0.346863 142.596 0.346863H149.257C150.176 0.346863 150.962 0.386267 151.615 0.464432C152.267 0.543244 152.856 0.70216 153.38 0.94247C154.014 1.21056 154.575 1.59363 155.062 2.09234C155.55 2.59105 155.919 3.17051 156.172 3.83071C156.425 4.49092 156.551 5.19053 156.551 5.92955C156.551 7.44376 156.126 8.65371 155.276 9.55875C154.426 10.4638 153.137 11.1053 151.408 11.4845C152.134 11.8721 152.829 12.4451 153.49 13.2022C154.152 13.9593 154.743 14.7648 155.262 15.6195C155.782 16.4735 156.186 17.2448 156.476 17.9328C156.765 18.6208 156.91 19.0943 156.91 19.3527C156.91 19.6111 156.825 19.8863 156.654 20.1492C156.485 20.4121 156.252 20.6201 155.958 20.7726C155.664 20.925 155.324 21.0013 154.937 21.0013C154.478 21.0013 154.092 20.8927 153.779 20.6757C153.467 20.4586 153.198 20.1841 152.973 19.8514C152.748 19.5187 152.442 19.0297 152.056 18.383L150.415 15.6401C149.826 14.6337 149.3 13.8669 148.836 13.341C148.372 12.8146 147.9 12.4547 147.422 12.2603C146.945 12.0665 146.342 11.9696 145.616 11.9696V11.9683H145.615ZM147.959 3.43536H144.181V9.01741H147.849C148.833 9.01741 149.66 8.93213 150.331 8.76095C151.002 8.5904 151.515 8.29906 151.869 7.88821C152.222 7.47735 152.4 6.91146 152.4 6.19118C152.4 5.62787 152.257 5.13175 151.972 4.70216C151.687 4.27257 151.292 3.95216 150.786 3.73963C150.309 3.53678 149.366 3.43472 147.959 3.43472H147.959V3.43536Z" fill="white"/>
<path d="M178.516 12.3979V16.29C178.516 16.8075 178.466 17.2203 178.365 17.5297C178.264 17.8391 178.077 18.1182 177.806 18.3675C177.535 18.6169 177.189 18.8572 176.765 19.0878C175.543 19.7526 174.366 20.2377 173.236 20.542C172.105 20.8469 170.873 20.9993 169.54 20.9993C167.986 20.9993 166.571 20.759 165.293 20.279C164.015 19.7991 162.926 19.1014 162.025 18.1873C161.124 17.2732 160.432 16.1647 159.95 14.863C159.468 13.5607 159.226 12.1066 159.226 10.5C159.226 8.89338 159.461 7.47543 159.929 6.16406C160.398 4.85269 161.087 3.74028 161.997 2.82556C162.907 1.91147 164.015 1.21186 165.321 0.726717C166.626 0.242221 168.106 -0.000671387 169.761 -0.000671387C171.122 -0.000671387 172.326 0.181499 173.374 0.546486C174.422 0.911473 175.272 1.37078 175.925 1.92504C176.578 2.4793 177.07 3.06522 177.4 3.68408C177.731 4.30294 177.897 4.85204 177.897 5.33266C177.897 5.8501 177.706 6.29067 177.324 6.65566C176.943 7.02065 176.486 7.20282 175.952 7.20282C175.658 7.20282 175.375 7.13369 175.104 6.99481C174.832 6.85656 174.605 6.66212 174.421 6.41277C173.916 5.61884 173.488 5.01806 173.139 4.61173C172.79 4.2054 172.319 3.86367 171.726 3.58654C171.133 3.30941 170.377 3.17116 169.458 3.17116C168.539 3.17116 167.665 3.33525 166.921 3.66276C166.176 3.99028 165.539 4.46638 165.011 5.08977C164.482 5.71315 164.078 6.47736 163.797 7.3824C163.517 8.28744 163.377 9.28938 163.377 10.3882C163.377 12.7706 163.921 14.604 165.011 15.8876C166.1 17.1712 167.619 17.8133 169.568 17.8133C170.515 17.8133 171.404 17.6886 172.236 17.4392C173.068 17.1899 173.911 16.8346 174.767 16.3727V13.0762H171.595C170.832 13.0762 170.255 12.9606 169.865 12.7299C169.474 12.4993 169.279 12.1066 169.279 11.5523C169.279 11.1001 169.442 10.7261 169.768 10.4302C170.094 10.135 170.538 9.98705 171.099 9.98705H175.745C176.315 9.98705 176.798 10.0381 177.193 10.1395C177.588 10.2409 177.907 10.467 178.151 10.8184C178.395 11.1692 178.516 11.6957 178.516 12.3973V12.3979Z" fill="white"/>
<path d="M195.739 3.51873H186.514V8.50517H195.009C195.634 8.50517 196.101 8.64599 196.408 8.92765C196.716 9.2093 196.87 9.58075 196.87 10.0426C196.87 10.5045 196.718 10.8805 196.414 11.1718C196.111 11.4625 195.642 11.6079 195.008 11.6079H186.514V17.3844H196.056C196.699 17.3844 197.184 17.5342 197.51 17.8346C197.836 18.135 197.999 18.5342 197.999 19.0329C197.999 19.5317 197.836 19.9031 197.51 20.2035C197.184 20.5039 196.699 20.6537 196.056 20.6537H184.928C184.036 20.6537 183.395 20.4554 183.005 20.0581C182.614 19.6609 182.419 19.0194 182.419 18.1324V2.86757C182.419 2.27648 182.506 1.79393 182.68 1.4199C182.855 1.04586 183.129 0.773255 183.501 0.602712C183.873 0.43217 184.349 0.346252 184.928 0.346252H195.738C196.391 0.346252 196.876 0.491601 197.193 0.782299C197.51 1.073 197.669 1.45413 197.669 1.92506C197.669 2.39599 197.51 2.7907 197.193 3.08139C196.876 3.37209 196.391 3.51744 195.738 3.51744V3.51873H195.739Z" fill="white"/>
</svg>
